<?xml version="1.0" encoding="UTF-8"?>
<svg width="16px" height="17px" viewBox="0 0 16 17" version="1.1" xmlns="http://www.w3.org/2000/svg" xmlns:xlink="http://www.w3.org/1999/xlink">
    <!-- Generator: Sketch 63.1 (92452) - https://sketch.com -->
    <title>ic_close@2x</title>
    <desc>Created with Sketch.</desc>
    <g id="页面-1" stroke="none" stroke-width="1" fill="none" fill-rule="evenodd">
        <g id="1-待点评列表" transform="translate(-687.000000, -622.000000)" fill="#FFFFFF" fill-rule="nonzero">
            <g id="分组-2" transform="translate(-3.000000, 288.000000)">
                <g id="抢沙发浮层" transform="translate(309.000000, 320.000000)">
                    <g id="ic_close" transform="translate(380.000000, 13.000000)">
                        <path d="M-0.316939616,9.9994874 C-0.868856514,9.97933342 -1.29993554,9.51557835 -1.27978157,8.96366146 C-1.25962759,8.41174456 -0.795872524,7.98066553 -0.243955626,8.00081951 L18.7693743,8.69511629 C19.3212912,8.71527026 19.7523702,9.17902533 19.7322162,9.73094223 C19.7120623,10.2828591 19.2483072,10.7139381 18.6963903,10.6937842 L-0.316939616,9.9994874 Z" id="路径-3" transform="translate(9.226217, 9.347302) rotate(45.000000) translate(-9.226217, -9.347302) "></path>
                        <path d="M10.5726219,18.845368 C10.5917378,19.3973218 10.1597873,19.8602653 9.60783352,19.8793812 C9.05587969,19.8984971 8.5929362,19.4665467 8.57382028,18.9145928 L7.91223906,-0.187935903 C7.89312314,-0.73988973 8.32507362,-1.20283322 8.87702745,-1.22194914 C9.42898127,-1.24106505 9.89192477,-0.809114577 9.91104068,-0.25716075 L10.5726219,18.845368 Z" id="路径-4" transform="translate(9.242430, 9.328716) rotate(45.000000) translate(-9.242430, -9.328716) "></path>
                    </g>
                </g>
            </g>
        </g>
    </g>
</svg>