<?xml version="1.0" encoding="UTF-8"?>
<svg width="23px" height="24px" viewBox="0 0 23 24" version="1.1" xmlns="http://www.w3.org/2000/svg" xmlns:xlink="http://www.w3.org/1999/xlink">
    <!-- Generator: Sketch 63.1 (92452) - https://sketch.com -->
    <title>ic_points_line_org</title>
    <desc>Created with Sketch.</desc>
    <g id="页面-1" stroke="none" stroke-width="1" fill="none" fill-rule="evenodd">
        <g id="1-待点评列表" transform="translate(-491.000000, -680.000000)" fill="#F27422">
            <g id="分组-2" transform="translate(-3.000000, 288.000000)">
                <g id="晒单按钮" transform="translate(470.000000, 376.000000)">
                    <g id="ic_points_line_org" transform="translate(24.000000, 16.000000)">
                        <path d="M11.467225,2.22703278 C17.1943724,2.22703278 20.8507827,4.07473846 20.8507827,5.35014983 C20.8507827,6.62541405 17.1943724,8.46973512 11.467225,8.46973512 C5.740225,8.46973512 2.08366731,6.62217659 2.08366731,5.35014983 C2.08366731,4.07797592 5.740225,2.22703278 11.467225,2.22703278 M11.467225,10.5528923 C17.0271801,10.5528923 22.9343468,8.7313806 22.9343468,5.35000268 C22.9343468,1.96862475 17.0271801,0.147260201 11.467225,0.147260201 C5.90726987,0.147260201 -4.42307696e-05,1.96862475 -4.42307696e-05,5.35000268 C-4.42307696e-05,8.7313806 5.90726987,10.5528923 11.467225,10.5528923" id="Fill-1"></path>
                        <path d="M2.08049744,9.72227826 C1.61518974,9.38205084 0.963228205,9.48682676 0.625747436,9.95125485 C0.199952564,10.5332615 -0.00984871795,11.1545592 0.00327307692,11.7955759 C0.0295166667,13.3619171 1.37280513,14.7256227 3.77763205,15.6379973 C5.76639487,16.3933552 8.34490128,16.7989204 11.0805744,16.7989204 C11.2378885,16.7989204 11.3984462,16.7955358 11.5590038,16.7955358 C17.118959,16.6975291 22.9933949,14.7713886 22.9345679,11.3966328 C22.9279333,10.9060107 22.7902282,10.4286328 22.5216,9.97406421 C22.2301192,9.47696722 21.5846449,9.31347559 21.0964846,9.60455251 C20.5984462,9.89562943 20.4312538,10.5332615 20.7261256,11.0303585 C20.8081,11.1710408 20.8474654,11.2984789 20.850709,11.4293017 C20.8735615,12.7013284 17.2500295,14.6112816 11.5228821,14.7159104 C8.85606154,14.7484321 6.38238205,14.3984923 4.52144615,13.6922849 C3.05357436,13.1363251 2.10010641,12.3775826 2.09037564,11.7562849 C2.08698462,11.5796963 2.16247179,11.3835358 2.30990769,11.1775157 C2.64724103,10.7098502 2.54580513,10.0591211 2.08049744,9.72227826" id="Fill-4"></path>
                        <path d="M20.9490487,15.8831906 C20.4738628,16.203699 20.3429397,16.8511906 20.6672987,17.3285686 C20.7917346,17.5117793 20.850709,17.6785084 20.850709,17.8355251 C20.850709,19.1075518 17.1942987,20.958495 11.4671513,20.958495 C5.74015128,20.958495 2.08374103,19.1075518 2.08374103,17.8355251 C2.08374103,17.681893 2.13947179,17.5216388 2.25093333,17.3516722 C2.5654141,16.8709097 2.43434359,16.2266555 1.95267051,15.9093846 C1.47114487,15.5954983 0.825670513,15.7295585 0.507798718,16.2069365 C0.170317949,16.7203679 2.94871791e-05,17.2664682 2.94871791e-05,17.8322876 C2.94871791e-05,21.216903 5.90734359,23.0382676 11.4671513,23.0382676 C17.0271064,23.0382676 22.9345679,21.216903 22.9345679,17.8355251 C22.9345679,17.2566087 22.7542538,16.6941739 22.3971641,16.164408 C22.0761962,15.6870301 21.4273308,15.5626823 20.9490487,15.8831906" id="Fill-7"></path>
                    </g>
                </g>
            </g>
        </g>
    </g>
</svg>